<svg xmlns="http://www.w3.org/2000/svg" width="1200" height="100" viewBox="0 0 1200 100">
  <path id="前面オブジェクトで型抜き_2" data-name="前面オブジェクトで型抜き 2" d="M1200,100H0V44.577H.713c16.228-4.135,32.747-8.036,49.1-11.6,15.89-3.458,32.043-6.686,48.009-9.594,15.491-2.821,31.262-5.423,46.873-7.732,15.113-2.235,30.484-4.258,45.689-6.01,14.694-1.7,29.652-3.186,44.458-4.431,14.291-1.2,28.818-2.208,43.178-2.99C291.837,1.47,305.918.9,319.87.531,333.244.178,346.862,0,360.346,0c14.539,0,29.379.208,44.1.618,13.874.386,28.077.964,42.212,1.718,13.194.7,26.739,1.583,40.256,2.615,12.507.954,25.37,2.068,38.229,3.308,22.1,2.13,45.027,4.706,70.106,7.876,21.91,2.77,42.771,5.654,61.177,8.2l.079.011c15.152,2.1,29.463,4.074,42.6,5.752,74.614,9.53,103.729,12.954,115.014,14.149,13.3,1.6,60.556,7.274,110.344,13.108,59.882,7.017,102.744,11.85,127.4,14.366a189.593,189.593,0,0,0,19.12.929c16.88,0,35.746-1.989,56.075-5.911,8.221-1.585,16.742-3.5,25.325-5.7,7.116-1.82,14.341-3.847,21.474-6.024a119.5,119.5,0,0,0,15.046-5.732c4.095-1.887,7.19-3.6,9.066-4.707H1200V100Z" fill="#00c8e7"/>
</svg>
